<?xml version="1.0" encoding="UTF-8" standalone="no"?><!DOCTYPE svg PUBLIC "-//W3C//DTD SVG 1.1//EN" "http://www.w3.org/Graphics/SVG/1.1/DTD/svg11.dtd"><svg width="100%" height="100%" viewBox="0 0 480 300" version="1.1" xmlns="http://www.w3.org/2000/svg" xmlns:xlink="http://www.w3.org/1999/xlink" xml:space="preserve" xmlns:serif="http://www.serif.com/" style="fill-rule:evenodd;clip-rule:evenodd;stroke-linecap:round;stroke-linejoin:round;stroke-miterlimit:1.5;"><rect id="Artboard3" x="0" y="0" width="480" height="300" style="fill:none;"/><clipPath id="_clip1"><rect x="0" y="0" width="480" height="300"/></clipPath><g clip-path="url(#_clip1)"><rect x="0" y="0" width="480" height="300" style="fill:#357edd;"/><path d="M440.836,236.632l-240,0l39.164,63.368l240,0l-39.164,-63.368Z" style="fill:#7fd142;"/><path d="M45.044,227.118l240,0l-45.044,72.882l-240,0l45.044,-72.882Z" style="fill:#7fd142;"/><path d="M55.422,214.822c0,0 -6.148,0 -10.162,0c-1.962,0 -3.642,1.408 -3.986,3.34c0,0 0,0 0,0c-0.348,1.956 -1.979,3.428 -3.96,3.574c-1.242,0.091 -2.655,0.195 -3.928,0.289c-2.392,0.176 -4.606,1.331 -6.119,3.192c-1.928,2.371 -4.556,5.604 -5.998,7.378c-0.697,0.857 -1.224,1.839 -1.554,2.893c-0.956,3.054 -3.008,9.609 -3.656,11.68c-0.134,0.426 -0.234,0.862 -0.301,1.304c-0.528,3.506 -2.991,19.847 -3.533,23.442c-0.071,0.467 -0.179,0.927 -0.323,1.376c-0.925,2.868 -4.514,13.997 -5.144,15.949c-0.063,0.195 -0.15,0.381 -0.26,0.553c0,0 0,0 0,0c-1.302,2.045 -1.386,4.637 -0.22,6.762c1.167,2.125 3.398,3.446 5.823,3.446c8.736,0 20.156,0 26.999,0c3.585,0 6.804,-2.196 8.112,-5.534c5.341,-13.635 19.228,-49.09 26.539,-67.755c1.051,-2.681 0.708,-5.708 -0.915,-8.087c-1.623,-2.379 -4.316,-3.802 -7.196,-3.802c-5.292,0 -10.218,0 -10.218,0Z" style="fill:#7fd142;"/><path d="M468.536,299.099c2.709,0.213 5.359,-0.861 7.157,-2.898c1.797,-2.038 2.531,-4.802 1.982,-7.463c-0.962,-4.655 -1.946,-9.423 -2.354,-11.397c-0.129,-0.627 -0.328,-1.238 -0.593,-1.822c-1.537,-3.388 -7.046,-15.535 -8.054,-17.757c-0.106,-0.234 -0.201,-0.472 -0.286,-0.714c-0.751,-2.145 -4.611,-13.169 -5.679,-16.221c-0.183,-0.521 -0.415,-1.023 -0.693,-1.5c-1.37,-2.346 -5.788,-9.915 -8.553,-14.651c-1.45,-2.485 -1.569,-5.528 -0.316,-8.118c0.825,-1.705 1.757,-3.632 2.493,-5.153c0.851,-1.761 1.081,-3.758 0.649,-5.667c-0.555,-2.459 -1.348,-5.965 -1.926,-8.526c-0.484,-2.142 -1.765,-4.018 -3.583,-5.249c-1.091,-0.74 -2.351,-1.593 -3.502,-2.373c-2.231,-1.511 -5.04,-1.895 -7.594,-1.037c-1.315,0.441 -2.755,0.925 -4.006,1.345c-2.107,0.706 -3.86,2.198 -4.895,4.163c-1.64,3.113 -4.016,7.624 -4.57,8.674c-0.078,0.15 -0.162,0.297 -0.249,0.442c-0.629,1.04 -3.379,5.592 -5.25,8.687c-1.147,1.899 -2.982,3.284 -5.123,3.867c-4.134,1.127 -10.989,2.995 -13.894,3.787c-0.906,0.247 -1.766,0.64 -2.546,1.163c-2.36,1.586 -7.661,5.146 -10.187,6.843c-0.918,0.617 -1.946,1.051 -3.029,1.28c-3.804,0.805 -13.191,2.792 -16.861,3.569c-0.996,0.211 -2.021,0.244 -3.028,0.098c-2.078,-0.301 -5.96,-0.863 -9.584,-1.388c-4.655,-0.674 -7.916,-4.947 -7.337,-9.615c0.025,-0.199 0.048,-0.381 0.068,-0.541c0.064,-0.516 0.081,-1.036 0.052,-1.555c-0.074,-1.301 -0.227,-3.993 -0.354,-6.22c-0.129,-2.265 -1.143,-4.388 -2.823,-5.911c-1.141,-1.034 -2.477,-2.246 -3.631,-3.292c-1.75,-1.587 -4.074,-2.388 -6.431,-2.216c-7.075,0.516 -22.05,1.607 -24.299,1.771c-0.189,0.014 -0.379,0.034 -0.568,0.06c-3.821,0.534 -45.156,6.312 -51.738,7.232c-0.586,0.082 -1.179,0.103 -1.769,0.064c-3.606,-0.239 -17.164,-1.14 -21.419,-1.423c-0.853,-0.057 -1.709,0.013 -2.541,0.208c-4.161,0.973 -17.449,4.082 -21.16,4.95c-0.645,0.151 -1.306,0.227 -1.968,0.227c-6.875,0 -47.105,0 -51.961,0c-0.32,0 -0.639,-0.017 -0.957,-0.053c-4.392,-0.489 -37.753,-4.205 -42.369,-4.72c-0.353,-0.039 -0.707,-0.056 -1.062,-0.052c-4.002,0.048 -29.325,0.356 -33.27,0.404c-0.344,0.004 -0.688,0.029 -1.029,0.074c-3.377,0.447 -22.543,2.983 -29.94,3.962c-1.868,0.247 -3.568,1.209 -4.743,2.682c0,0.001 0,0.001 0,0.001c-0.201,0.251 -0.355,0.537 -0.454,0.844c-0.229,0.706 -0.694,2.141 -1.214,3.748c-1.339,4.133 0.6,8.617 4.528,10.473c19.518,9.226 74.522,35.222 84.108,39.752c0.948,0.449 1.97,0.72 3.015,0.802c22.472,1.767 277.814,21.838 335.34,26.36Z" style="fill:#7fd142;"/><path d="M323.07,218.4c0,0 -8.533,4.139 -6.165,7.393c1.082,1.487 2.462,3.988 3.643,6.266c1.565,2.817 5.021,3.974 7.966,2.667c0.903,-0.384 1.826,-0.794 2.705,-1.184c2.77,-1.229 4.257,-4.27 3.525,-7.211c-0.119,-0.475 -0.225,-0.903 -0.309,-1.239c-0.123,-0.493 -0.185,-0.999 -0.185,-1.507c0,-0.176 0,-0.378 0,-0.602c0,-2.132 -1.088,-4.116 -2.885,-5.262c-1.798,-1.146 -4.056,-1.295 -5.988,-0.395c-1.352,0.629 -2.307,1.074 -2.307,1.074" style="fill:#357edd;"/><circle cx="57.608" cy="214.102" r="6.645" style="fill:#fff;"/><circle cx="79.634" cy="248.295" r="5.419" style="fill:#fff;"/><circle cx="413.417" cy="259.532" r="5.419" style="fill:#fff;"/><circle cx="184.247" cy="238.986" r="5.419" style="fill:#fff;"/><circle cx="287.889" cy="231.818" r="5.419" style="fill:#fff;"/><circle cx="458.606" cy="285.728" r="5.419" style="fill:#fff;"/><circle cx="323.943" cy="282.962" r="5.419" style="fill:#fff;"/><circle cx="88.75" cy="217.798" r="3.696" style="fill:#fff;"/><ellipse cx="115.993" cy="248.243" rx="3.696" ry="3.838" style="fill:#fff;"/><ellipse cx="218.29" cy="268.069" rx="3.696" ry="3.838" style="fill:#fff;"/><ellipse cx="396.871" cy="221.486" rx="3.696" ry="3.838" style="fill:#fff;"/><ellipse cx="259.602" cy="217.649" rx="3.696" ry="3.838" style="fill:#fff;"/><circle cx="90.473" cy="278.393" r="4.045" style="fill:#fff;"/><circle cx="120.363" cy="214.102" r="7.607" style="fill:#fff;"/><circle cx="385.567" cy="279.514" r="7.607" style="fill:#fff;"/><circle cx="264.304" cy="281.059" r="7.607" style="fill:#fff;"/><circle cx="147.562" cy="262.839" r="5.04" style="fill:#fff;"/><circle cx="298.348" cy="255.347" r="5.04" style="fill:#fff;"/><circle cx="441.522" cy="242.277" r="5.04" style="fill:#fff;"/><path d="M252.979,241.799c-0.601,1.949 -2.672,3.043 -4.621,2.442c-1.949,-0.602 -3.044,-2.673 -2.442,-4.622c0.601,-1.949 2.672,-3.043 4.621,-2.442c1.95,0.602 3.044,2.672 2.442,4.622Z" style="fill:#fff;"/><path d="M193.884,285.112c-0.82,2.657 -3.644,4.149 -6.302,3.329c-2.658,-0.82 -4.15,-3.644 -3.33,-6.301c0.82,-2.658 3.644,-4.15 6.302,-3.33c2.658,0.82 4.15,3.644 3.33,6.302Z" style="fill:#fff;"/><path d="M354.349,261.874c-0.82,2.658 -3.644,4.15 -6.302,3.33c-2.657,-0.821 -4.149,-3.644 -3.329,-6.302c0.82,-2.658 3.644,-4.15 6.301,-3.33c2.658,0.82 4.15,3.644 3.33,6.302Z" style="fill:#fff;"/><circle cx="39.204" cy="265.786" r="4.621" style="fill:#fff;"/><circle cx="219.999" cy="226.398" r="4.621" style="fill:#fff;"/><circle cx="362.324" cy="229.945" r="4.621" style="fill:#fff;"/><circle cx="380.947" cy="247.497" r="4.621" style="fill:#fff;"/><circle cx="441.522" cy="208.051" r="4.621" style="fill:#fff;"/><path d="M441.522,208.051l0,34.226l17.084,43.451l-44.949,-26.966l-16.786,-37.276l-15.889,25.831l4.585,32.992l-36.396,-20.134l-25.505,22.472l-25.175,-27.826l-10.439,-22.792l-28.384,-14.38l-10.388,22.519l14.896,40.141l-46.094,-12.047l1.915,-41.688l-35.867,12.78l5.305,44.218l-41.838,-20.998l-31.604,-14.331l-25.52,30.15l-10.835,-30.15l40.051,-33.778l-30.99,3.106l-31.393,-3.086l-18.102,51.555" style="fill:none;stroke:#fff;stroke-width:0.9px;"/><path d="M39.204,265.703l40.608,-17.46l8.62,-30.18l31.257,-4.245l27.758,48.889l-56.974,15.686l98.21,4.045l28.769,-14.741l-33.519,-29.261l-68.325,9.888" style="fill:none;stroke:#fff;stroke-width:0.9px;"/><path d="M39.204,267.167l21.622,39.614l29.304,-28.433l45.735,33.756l53.231,-28.202l12.277,20.561l61.618,-23.694l35.057,-26.038l-49.143,-13.386l39.942,-8.741l60.143,27.051l2.789,48.839l-28.08,-26.056l62.32,-2.386l26.422,-21.249l28.873,-15.927l-44.795,-21.166l45.015,-13.659" style="fill:none;stroke:#fff;stroke-width:0.9px;"/><path d="M381.073,246.889l-19.189,-17.329l-11.695,30.517" style="fill:none;stroke:#fff;stroke-width:0.9px;"/><path d="M458.606,285.728l-59.985,24.129" style="fill:none;stroke:#fff;stroke-width:0.9px;"/></g></svg>