<?xml version="1.0" encoding="UTF-8" standalone="no"?><!DOCTYPE svg PUBLIC "-//W3C//DTD SVG 1.1//EN" "http://www.w3.org/Graphics/SVG/1.1/DTD/svg11.dtd"><svg width="100%" height="100%" viewBox="0 0 72 48" version="1.1" xmlns="http://www.w3.org/2000/svg" xmlns:xlink="http://www.w3.org/1999/xlink" xml:space="preserve" xmlns:serif="http://www.serif.com/" style="fill-rule:evenodd;clip-rule:evenodd;stroke-linecap:round;stroke-linejoin:round;stroke-miterlimit:1.5;"><rect id="Artboard3" x="0" y="0" width="72" height="48" style="fill:none;"/><g><path d="M53.243,17.267c0.396,0.156 13.265,3.845 14.605,-6.511" style="fill:#cfaa8d;"/><path d="M67.836,10.903l1.264,-6.726c0.17,-0.904 -0.026,-1.839 -0.546,-2.599c-0.519,-0.759 -1.319,-1.281 -2.223,-1.451c-0.119,-0.022 -0.239,-0.045 -0.358,-0.067c-0.904,-0.17 -1.839,0.026 -2.598,0.545c-0.76,0.52 -1.282,1.319 -1.452,2.223c0,0 -0.6,3.195 -0.793,4.222c-0.033,0.175 -0.197,0.295 -0.374,0.274c0,0 0,0 0,0c-0.185,-0.023 -0.327,-0.175 -0.337,-0.361c-0.048,-0.967 -0.188,-3.765 -0.188,-3.765c-0.042,-0.837 -0.415,-1.624 -1.037,-2.186c-0.621,-0.562 -1.441,-0.855 -2.278,-0.813c0,0 0,0 -0.001,0c-0.837,0.042 -1.623,0.415 -2.185,1.037c-0.563,0.621 -0.855,1.441 -0.813,2.278c0,0 0.091,1.824 0.143,2.862c0.009,0.184 -0.055,0.364 -0.179,0.5c-0.124,0.137 -0.298,0.218 -0.482,0.226c0,0 0,0 0,0c-0.402,0.019 -0.753,-0.268 -0.815,-0.665c-0.095,-0.6 -0.215,-1.367 -0.215,-1.367c-0.117,-0.739 -0.522,-1.403 -1.128,-1.843c-0.605,-0.441 -1.361,-0.623 -2.1,-0.507c-0.001,0 -0.001,0 -0.001,0c-0.74,0.116 -1.403,0.522 -1.843,1.127c-0.441,0.606 -0.623,1.361 -0.507,2.101c0,0 0,0 0,0c0.154,0.983 -0.498,1.911 -1.475,2.098c-6.606,1.268 -11.246,3.542 -11.045,5.687c0.252,2.682 7.978,4.153 17.242,3.283c8.22,-0.771 14.906,-3.128 16.134,-5.523l0.077,0.014l0.079,-0.423c0.015,-0.061 0.027,-0.121 0.034,-0.181Z" style="fill:#cfaa8d;"/><path d="M43.703,13.006c-1.256,1.657 0.61,5.19 4.164,7.884c3.555,2.694 7.46,3.536 8.716,1.879c1.256,-1.657 -0.61,-5.189 -4.165,-7.883c-3.554,-2.695 -7.46,-3.537 -8.715,-1.88Z" style="fill:#d18142;"/><path d="M18.757,17.267c-0.396,0.156 -13.265,3.845 -14.605,-6.511" style="fill:#cfaa8d;"/><path d="M4.164,10.903l-1.264,-6.726c-0.17,-0.904 0.026,-1.839 0.546,-2.599c0.519,-0.759 1.319,-1.281 2.223,-1.451c0.119,-0.022 0.239,-0.045 0.358,-0.067c0.904,-0.17 1.839,0.026 2.598,0.545c0.76,0.52 1.282,1.319 1.452,2.223c0,0 0.6,3.195 0.793,4.222c0.033,0.175 0.197,0.295 0.374,0.274c0,0 0,0 0,0c0.185,-0.023 0.327,-0.175 0.337,-0.361c0.048,-0.967 0.188,-3.765 0.188,-3.765c0.042,-0.837 0.415,-1.624 1.037,-2.186c0.621,-0.562 1.441,-0.855 2.278,-0.813c0,0 0,0 0.001,0c0.837,0.042 1.623,0.415 2.185,1.037c0.563,0.621 0.855,1.441 0.813,2.278c0,0 -0.091,1.824 -0.143,2.862c-0.009,0.184 0.055,0.364 0.179,0.5c0.124,0.137 0.298,0.218 0.482,0.226c0,0 0,0 0,0c0.402,0.019 0.753,-0.268 0.815,-0.665c0.095,-0.6 0.215,-1.367 0.215,-1.367c0.117,-0.739 0.522,-1.403 1.128,-1.843c0.605,-0.441 1.361,-0.623 2.1,-0.507c0.001,0 0.001,0 0.001,0c0.74,0.116 1.403,0.522 1.843,1.127c0.441,0.606 0.623,1.361 0.507,2.101c0,0 0,0 0,0c-0.154,0.983 0.498,1.911 1.475,2.098c6.606,1.268 11.246,3.542 11.045,5.687c-0.252,2.682 -7.978,4.153 -17.242,3.283c-8.22,-0.771 -14.906,-3.128 -16.134,-5.523l-0.077,0.014l-0.079,-0.423c-0.015,-0.061 -0.027,-0.121 -0.034,-0.181Z" style="fill:#cfaa8d;"/><path d="M45.825,14.615c-0.504,0.665 1.021,2.672 3.404,4.478c2.383,1.806 4.727,2.732 5.231,2.067c0.504,-0.665 -1.021,-2.671 -3.404,-4.478c-2.383,-1.806 -4.727,-2.732 -5.231,-2.067Z" style="fill:#b9743e;"/><path d="M28.297,13.006c1.256,1.657 -0.61,5.19 -4.164,7.884c-3.555,2.694 -7.46,3.536 -8.716,1.879c-1.256,-1.657 0.61,-5.189 4.165,-7.883c3.554,-2.695 7.46,-3.537 8.715,-1.88Z" style="fill:#d18142;"/><path d="M26.175,14.615c0.504,0.665 -1.021,2.672 -3.404,4.478c-2.383,1.806 -4.727,2.732 -5.231,2.067c-0.504,-0.665 1.021,-2.671 3.404,-4.478c2.383,-1.806 4.727,-2.732 5.231,-2.067Z" style="fill:#b9743e;"/><path d="M22.159,26.988c0.824,-1.902 1.185,-3.972 1.052,-6.04c-0.022,-0.269 -0.03,-0.54 -0.03,-0.812c0,-7.07 5.739,-12.809 12.808,-12.809c7.069,0 12.808,5.739 12.808,12.809c0,0.272 -0.008,0.543 -0.025,0.812c-0.133,2.067 0.228,4.137 1.052,6.038c0.784,1.829 1.221,3.843 1.221,5.958c0,8.31 -6.746,15.056 -15.056,15.056c-8.31,0 -15.056,-6.746 -15.056,-15.056c0,-2.115 0.437,-4.129 1.226,-5.956Z" style="fill:#d18142;"/><circle cx="29.943" cy="23.618" r="4.293" style="fill:#361800;"/><path d="M35.989,29.956c0,0 -4.8,0 -9.164,0c-1.848,0 -3.62,0.734 -4.926,2.041c-1.307,1.307 -2.041,3.079 -2.041,4.926c0,0.001 0,0.001 0,0.001c0,2.937 1.167,5.755 3.244,7.832c2.078,2.077 4.895,3.244 7.833,3.244c2.812,0 5.054,0 5.054,0l0,-18.044Z" style="fill:#b9743e;"/><path d="M35.989,29.956c0,0 4.8,0 9.164,0c1.848,0 3.62,0.734 4.926,2.041c1.307,1.307 2.041,3.079 2.041,4.926c0,0.001 0,0.001 0,0.001c0,2.937 -1.167,5.755 -3.244,7.832c-2.078,2.077 -4.895,3.244 -7.833,3.244c-2.812,0 -5.054,0 -5.054,0l0,-18.044Z" style="fill:#b9743e;"/><ellipse cx="33.109" cy="35.148" rx="2.094" ry="3.098" style="fill:#361800;"/><ellipse cx="38.869" cy="35.148" rx="2.094" ry="3.098" style="fill:#361800;"/><circle cx="30.754" cy="24.429" r="1.687" style="fill:#f6f6f6;"/><circle cx="42.057" cy="23.618" r="4.293" style="fill:#361800;"/><circle cx="42.868" cy="24.429" r="1.687" style="fill:#f6f6f6;"/><g><path d="M25.157,37.697c0,0 0.129,6.023 6.023,6.023c5.894,0 4.766,0 4.766,0" style="fill:none;stroke:#361800;stroke-width:1.43px;"/><path d="M46.821,37.697c0,0 -0.129,6.023 -6.023,6.023c-5.894,0 -4.766,0 -4.766,0" style="fill:none;stroke:#361800;stroke-width:1.43px;"/></g></g></svg>