<?xml version="1.0" encoding="UTF-8" standalone="no"?><!DOCTYPE svg PUBLIC "-//W3C//DTD SVG 1.1//EN" "http://www.w3.org/Graphics/SVG/1.1/DTD/svg11.dtd"><svg width="100%" height="100%" viewBox="0 0 168 30" version="1.1" xmlns="http://www.w3.org/2000/svg" xmlns:xlink="http://www.w3.org/1999/xlink" xml:space="preserve" xmlns:serif="http://www.serif.com/" style="fill-rule:evenodd;clip-rule:evenodd;stroke-linecap:round;stroke-linejoin:round;stroke-miterlimit:1.5;"><rect id="Artboard4" x="0" y="0" width="168" height="30" style="fill:none;"/><clipPath id="_clip1"><rect x="0" y="0" width="168" height="30"/></clipPath><g clip-path="url(#_clip1)"><g><path d="M31.502,10.792c0.247,0.098 8.29,2.403 9.128,-4.07" style="fill:#cfaa8d;"/><path d="M40.622,6.815l0.79,-4.205c0.106,-0.565 -0.016,-1.149 -0.341,-1.623c-0.324,-0.475 -0.824,-0.801 -1.389,-0.908c-0.075,-0.014 -0.15,-0.028 -0.224,-0.042c-0.565,-0.106 -1.149,0.017 -1.624,0.341c-0.475,0.325 -0.801,0.825 -0.907,1.39c0,0 -0.375,1.997 -0.496,2.638c-0.021,0.11 -0.123,0.185 -0.234,0.171c0,0 0,0 0,0c-0.116,-0.014 -0.204,-0.109 -0.21,-0.225c-0.03,-0.604 -0.118,-2.353 -0.118,-2.353c-0.026,-0.524 -0.259,-1.015 -0.648,-1.366c-0.388,-0.352 -0.9,-0.535 -1.424,-0.508c0,0 0,0 0,0c-0.523,0.026 -1.015,0.259 -1.366,0.647c-0.352,0.389 -0.534,0.901 -0.508,1.424c0,0 0.057,1.141 0.089,1.789c0.006,0.115 -0.034,0.228 -0.112,0.313c-0.077,0.085 -0.186,0.136 -0.301,0.141c0,0 0,0 0,0c-0.251,0.011 -0.47,-0.168 -0.509,-0.416c-0.059,-0.375 -0.135,-0.854 -0.135,-0.854c-0.073,-0.462 -0.326,-0.877 -0.704,-1.152c-0.379,-0.276 -0.851,-0.39 -1.313,-0.317c0,0 -0.001,0 -0.001,0c-0.462,0.073 -0.876,0.326 -1.152,0.705c-0.275,0.378 -0.389,0.85 -0.317,1.313c0,0 0,0 0,0c0.097,0.614 -0.311,1.194 -0.921,1.311c-4.129,0.792 -7.029,2.214 -6.903,3.554c0.157,1.676 4.986,2.596 10.776,2.052c5.137,-0.482 9.316,-1.955 10.084,-3.452l0.048,0.009l0.049,-0.265c0.01,-0.037 0.017,-0.075 0.021,-0.112Z" style="fill:#cfaa8d;"/><path d="M25.539,8.129c-0.785,1.035 0.381,3.243 2.603,4.927c2.221,1.684 4.662,2.21 5.447,1.175c0.785,-1.036 -0.381,-3.244 -2.603,-4.928c-2.221,-1.683 -4.662,-2.21 -5.447,-1.174Z" style="fill:#d18142;"/><path d="M9.948,10.792c-0.248,0.098 -8.291,2.403 -9.128,-4.07" style="fill:#cfaa8d;"/><path d="M0.827,6.815l-0.79,-4.205c-0.106,-0.565 0.017,-1.149 0.341,-1.623c0.325,-0.475 0.825,-0.801 1.39,-0.908c0.074,-0.014 0.149,-0.028 0.224,-0.042c0.565,-0.106 1.149,0.017 1.624,0.341c0.474,0.325 0.801,0.825 0.907,1.39c0,0 0.375,1.997 0.496,2.638c0.02,0.11 0.122,0.185 0.233,0.171c0,0 0,0 0.001,0c0.115,-0.014 0.204,-0.109 0.21,-0.225c0.03,-0.604 0.118,-2.353 0.118,-2.353c0.026,-0.524 0.259,-1.015 0.647,-1.366c0.389,-0.352 0.901,-0.535 1.424,-0.508c0,0 0.001,0 0.001,0c0.523,0.026 1.014,0.259 1.366,0.647c0.351,0.389 0.534,0.901 0.508,1.424c0,0 -0.057,1.141 -0.09,1.789c-0.006,0.115 0.035,0.228 0.112,0.313c0.078,0.085 0.186,0.136 0.301,0.141c0,0 0,0 0,0c0.251,0.011 0.471,-0.168 0.51,-0.416c0.059,-0.375 0.134,-0.854 0.134,-0.854c0.073,-0.462 0.327,-0.877 0.705,-1.152c0.378,-0.276 0.851,-0.39 1.313,-0.317c0,0 0,0 0,0c0.462,0.073 0.877,0.326 1.152,0.705c0.276,0.378 0.39,0.85 0.317,1.313c0,0 0,0 0,0c-0.097,0.614 0.311,1.194 0.922,1.311c4.129,0.792 7.029,2.214 6.903,3.554c-0.158,1.676 -4.986,2.596 -10.776,2.052c-5.138,-0.482 -9.317,-1.955 -10.084,-3.452l-0.048,0.009l-0.05,-0.265c-0.009,-0.037 -0.016,-0.075 -0.021,-0.112Z" style="fill:#cfaa8d;"/><path d="M26.866,9.135c-0.315,0.415 0.638,1.669 2.127,2.798c1.489,1.129 2.954,1.708 3.269,1.292c0.315,-0.416 -0.638,-1.67 -2.127,-2.798c-1.489,-1.129 -2.954,-1.708 -3.269,-1.292Z" style="fill:#b9743e;"/><path d="M15.911,8.129c0.785,1.035 -0.382,3.243 -2.603,4.927c-2.222,1.684 -4.663,2.21 -5.448,1.175c-0.784,-1.036 0.382,-3.244 2.603,-4.928c2.222,-1.683 4.663,-2.21 5.448,-1.174Z" style="fill:#d18142;"/><path d="M14.584,9.135c0.315,0.415 -0.638,1.669 -2.127,2.798c-1.49,1.129 -2.955,1.708 -3.27,1.292c-0.315,-0.416 0.638,-1.67 2.128,-2.798c1.489,-1.129 2.954,-1.708 3.269,-1.292Z" style="fill:#b9743e;"/><path d="M11.895,17.312c0.554,-1.489 0.831,-3.065 0.819,-4.654c-0.001,-0.024 -0.001,-0.049 -0.001,-0.073c0,-4.418 3.587,-8.005 8.005,-8.005c4.418,0 8.005,3.587 8.005,8.005c0,0.024 0,0.049 0,0.073c-0.012,1.588 0.266,3.165 0.819,4.654c0.378,1.021 0.586,2.125 0.586,3.278c0,5.193 -4.217,9.41 -9.41,9.41c-5.194,0 -9.41,-4.217 -9.41,-9.41c0,-1.153 0.207,-2.257 0.587,-3.278Z" style="fill:#d18142;"/><circle cx="16.939" cy="14.761" r="2.683" style="fill:#361800;"/><path d="M20.718,18.723c0,0 -3,0 -5.727,0c-1.155,0 -2.263,0.459 -3.079,1.275c-0.817,0.817 -1.276,1.924 -1.276,3.079c0,0 0,0 0,0c0,1.836 0.73,3.597 2.028,4.895c1.298,1.299 3.059,2.028 4.895,2.028c1.758,0 3.159,0 3.159,0l0,-11.277Z" style="fill:#b9743e;"/><path d="M20.718,18.723c0,0 3,0 5.727,0c1.155,0 2.263,0.459 3.079,1.275c0.817,0.817 1.276,1.924 1.276,3.079c0,0 0,0 0,0c0,1.836 -0.73,3.597 -2.028,4.895c-1.298,1.299 -3.059,2.028 -4.895,2.028c-1.758,0 -3.159,0 -3.159,0l0,-11.277Z" style="fill:#b9743e;"/><ellipse cx="18.918" cy="21.968" rx="1.309" ry="1.936" style="fill:#361800;"/><ellipse cx="22.518" cy="21.968" rx="1.309" ry="1.936" style="fill:#361800;"/><circle cx="17.446" cy="15.268" r="1.054" style="fill:#f6f6f6;"/><circle cx="24.51" cy="14.761" r="2.683" style="fill:#361800;"/><circle cx="25.017" cy="15.268" r="1.054" style="fill:#f6f6f6;"/><g><path d="M13.948,23.56c0,0 0.08,3.765 3.764,3.765c3.684,0 2.979,0 2.979,0" style="fill:none;stroke:#361800;stroke-width:0.89px;"/><path d="M27.488,23.56c0,0 -0.081,3.765 -3.765,3.765c-3.684,0 -2.978,0 -2.978,0" style="fill:none;stroke:#361800;stroke-width:0.89px;"/></g></g><g transform="matrix(0.668149,0,0,0.668149,-1434.03,-62.3482)"><text x="2219.86px" y="131.54px" style="font-family:'Arista2.0', 'Arista 2.0';font-size:50px;fill:#d18142;">meese</text><text x="2353.26px" y="131.54px" style="font-family:'Arista2.0', 'Arista 2.0';font-size:50px;fill:#cfaa8d;">.io</text></g></g></svg>